<svg width="43" height="42" viewBox="0 0 43 42" fill="none" xmlns="http://www.w3.org/2000/svg">
<path fill-rule="evenodd" clip-rule="evenodd" d="M16.7699 36.8552L17.4336 34.1684C15.1175 33.6523 12.9901 32.507 11.2876 30.8597C9.58507 29.2123 8.37392 27.1273 7.78852 24.8359L5.15039 25.5223C5.8541 28.2929 7.31099 30.8167 9.36093 32.816C11.4109 34.8154 13.9745 36.213 16.7699 36.8552Z" fill="#B0D7E6"/>
<path fill-rule="evenodd" clip-rule="evenodd" d="M32.0947 25.9668C31.0473 28.9178 28.9565 31.3875 26.2135 32.9139L27.835 36.1865C31.3891 34.2414 34.1057 31.0676 35.4721 27.2641L32.0947 25.9668Z" fill="#60A9C5"/>
<path fill-rule="evenodd" clip-rule="evenodd" d="M29.5153 38.7652L26.3815 32.7891C23.6052 34.3211 20.3577 34.7744 17.2657 34.0613L15.5853 40.3722C20.2634 41.6399 25.2519 41.0644 29.5153 38.7652Z" fill="#8FC4D9"/>
<path fill-rule="evenodd" clip-rule="evenodd" d="M32.876 21.5642C32.8774 23.2516 32.5493 24.9232 31.9098 26.4857L37.9926 29.139C39.3491 25.6411 39.6155 21.8171 38.7572 18.166L32.6996 19.2876C32.8247 20.0399 32.8838 20.8017 32.876 21.5642Z" fill="#318EB4"/>
<path fill-rule="evenodd" clip-rule="evenodd" d="M7.36003 21.5639C7.36157 19.688 7.77147 17.8347 8.56147 16.1318L2.7223 13.5371C0.749576 17.9141 0.450773 22.8585 1.88213 27.4396L7.96495 25.5061C7.56174 24.2307 7.35771 22.9011 7.36003 21.5639Z" fill="#8FC4D9"/>
<path fill-rule="evenodd" clip-rule="evenodd" d="M4.35229 14.3238L8.55314 16.182C9.30777 14.5115 10.414 13.0222 11.7969 11.815C13.1798 10.6077 14.807 9.71068 16.5683 9.18468L15.1569 4.79883C12.7771 5.52479 10.5813 6.75065 8.71746 8.39376C6.85362 10.0369 5.36511 12.059 4.35229 14.3238Z" fill="#60A9C5"/>
<path fill-rule="evenodd" clip-rule="evenodd" d="M13.6614 3.493L15.9214 9.42729C17.4756 8.87259 19.125 8.63133 20.7736 8.71754C22.4223 8.80376 24.0372 9.21573 25.5245 9.92949L28.1711 3.72735C23.5487 1.7743 18.3448 1.69025 13.6614 3.493Z" fill="#318EB4"/>
<path fill-rule="evenodd" clip-rule="evenodd" d="M28.7675 0.982422L25.2556 9.77087C27.1933 10.6423 28.885 11.9767 30.1806 13.6559C31.4762 15.335 32.3357 17.3068 32.6827 19.3963L42.4454 17.6721C41.7476 13.9729 40.13 10.5071 37.7405 7.59152C35.3511 4.67593 32.266 2.40364 28.7675 0.982422V0.982422Z" fill="#0C74A4"/>
<path fill-rule="evenodd" clip-rule="evenodd" d="M25.6841 26.2438C25.2389 25.0051 24.9868 24.5196 24.5919 23.4483C24.197 22.3769 23.8022 21.3391 23.4241 20.3681C23.046 19.3972 22.6595 18.4682 22.2899 17.5809C21.9202 16.6937 21.5169 15.8233 21.1136 14.9528C21.0506 14.7999 20.9436 14.6691 20.806 14.5767C20.6685 14.4844 20.5065 14.4347 20.3407 14.4338C20.1465 14.4291 19.9566 14.4916 19.8034 14.6106C19.6502 14.7296 19.5432 14.8979 19.5005 15.0867C19.114 15.9125 18.7416 16.7495 18.3831 17.5977C18.0246 18.4458 17.6465 19.3749 17.2489 20.3849C16.8792 21.3446 16.4871 22.3658 16.0726 23.4483C15.6777 24.528 15.4929 25.1223 15.0476 26.3527C14.9889 26.4667 14.9573 26.5927 14.9552 26.7209C14.9552 26.9429 15.0437 27.1558 15.2013 27.3128C15.3588 27.4697 15.5725 27.5579 15.7954 27.5579C15.9527 27.5529 16.1054 27.5039 16.2361 27.4166C16.3668 27.3293 16.4703 27.2071 16.5347 27.0641L17.6017 23.8919H22.9704L23.4997 25.432C23.6677 25.9342 23.8526 26.4698 24.0458 26.9888C24.1123 27.1561 24.2282 27.2993 24.3783 27.3995C24.5283 27.4997 24.7054 27.552 24.886 27.5496C25.1252 27.5452 25.3529 27.4468 25.5197 27.276C25.6865 27.1051 25.7788 26.8756 25.7766 26.6372C25.7754 26.5009 25.7438 26.3665 25.6841 26.2438ZM18.1226 22.5192C18.4755 21.5148 18.8312 20.5411 19.1896 19.5981C19.5481 18.6551 19.9094 17.7511 20.2735 16.8862C20.6599 17.7567 21.0324 18.6635 21.3909 19.6065C21.7494 20.5495 22.1106 21.5232 22.4747 22.5276L18.1226 22.5192Z" fill="#EF4744"/>
</svg>
