<svg width="116" height="16" viewBox="0 0 116 16" fill="none" xmlns="http://www.w3.org/2000/svg">
<path fill-rule="evenodd" clip-rule="evenodd" d="M11.89 6.98694C11.3888 5.71857 10.893 4.51035 10.4027 3.36226C9.91248 2.21417 9.40846 1.09342 8.89066 0H6.19702C5.67372 1.09342 5.16694 2.2251 4.67668 3.39506C4.18643 4.56502 3.69067 5.77324 3.1894 7.01974C2.68813 8.2881 2.17584 9.63027 1.65254 11.0462C1.12924 12.4622 0.578389 14.0094 0 15.6878H2.93326L3.56948 13.8673C3.78431 13.2549 3.99914 12.6317 4.21397 11.9975H10.7746C10.9839 12.6317 11.2015 13.2495 11.4273 13.8509C11.6532 14.4522 11.8707 15.0646 12.0801 15.6878H15.129C14.5451 14.0149 13.9943 12.4677 13.4765 11.0462C12.9587 9.6248 12.4298 8.2717 11.89 6.98694ZM4.9163 9.66034C5.39554 8.31544 5.8555 7.06894 6.29618 5.92085C6.73685 4.77276 7.12795 3.79962 7.46948 3.00143C7.79999 3.77229 8.18833 4.73723 8.63452 5.89625C9.0807 7.05527 9.54341 8.30724 10.0226 9.65214L4.9163 9.66034ZM24.2841 8.43845H19.8718V3.82149H17.1616V15.6632H19.8718V10.7428H24.2841V15.6632H26.9942V3.82149H24.2841V8.43845ZM38.8429 12.2271C38.3582 11.6476 37.8652 11.1009 37.3639 10.587C36.9054 10.1067 36.4228 9.64959 35.9179 9.21751L37.116 7.98741L38.4629 6.5605L39.7849 5.12539C40.209 4.65522 40.5864 4.22606 40.9169 3.83789H37.7357C37.4989 4.12218 37.2014 4.46661 36.8434 4.87117L35.7114 6.12587L34.5133 7.38056C34.1112 7.81246 33.7366 8.20063 33.3896 8.54505V3.78869H30.6794V15.6632H33.373V10.341C33.8149 10.6773 34.2345 11.0416 34.629 11.4317C35.0641 11.8526 35.491 12.3009 35.9097 12.7766C36.3283 13.2522 36.7277 13.7388 37.1078 14.2363C37.4879 14.7338 37.8211 15.2094 38.1076 15.6632H41.2474C40.9263 15.0989 40.5761 14.5515 40.198 14.0231C39.7849 13.4217 39.3332 12.8258 38.8429 12.2353V12.2271ZM47.7336 3.52627C47.0422 3.52665 46.3575 3.66034 45.7175 3.9199C45.0561 4.1862 44.459 4.58868 43.9658 5.10079C43.4288 5.66531 43.0128 6.33208 42.7429 7.06074C42.4196 7.93756 42.2627 8.86622 42.2802 9.79975C42.2701 10.6331 42.3899 11.463 42.6355 12.2599C42.8591 12.9777 43.2336 13.6402 43.7345 14.2035C44.2537 14.7714 44.8986 15.2121 45.6183 15.491C46.4771 15.819 47.392 15.9778 48.312 15.9584C48.7095 15.9596 49.1068 15.9377 49.5018 15.8928C49.8929 15.8491 50.2565 15.7917 50.5925 15.7206C50.8939 15.66 51.1918 15.5834 51.4849 15.491C51.6974 15.4279 51.9046 15.3483 52.1046 15.2532L51.7493 13.0144C51.3324 13.1818 50.901 13.3109 50.4603 13.3998C49.8683 13.5253 49.2643 13.5858 48.659 13.5802C47.7295 13.6336 46.8133 13.3412 46.0893 12.7602C45.784 12.4763 45.5385 12.1352 45.3669 11.7565C45.1953 11.3779 45.101 10.9692 45.0895 10.5542H52.8234C52.8234 10.4011 52.8234 10.2316 52.8234 10.0458C52.8234 9.85989 52.8234 9.69041 52.8234 9.53733C52.9456 7.91462 52.4634 6.30383 51.4683 5.01058C50.9917 4.50887 50.4108 4.11619 49.7658 3.85986C49.1209 3.60353 48.4274 3.4897 47.7336 3.52627ZM45.1143 8.57786C45.1597 8.23101 45.2429 7.89007 45.3622 7.56098C45.4756 7.23825 45.6463 6.9383 45.8662 6.67531C46.0943 6.41202 46.3759 6.19962 46.6925 6.05206C47.0345 5.88708 47.4113 5.80554 47.7914 5.81425C48.1504 5.80445 48.5068 5.87744 48.8325 6.02746C49.1212 6.16752 49.3751 6.36913 49.5762 6.61791C49.7864 6.88082 49.9435 7.18155 50.0389 7.50357C50.1446 7.85195 50.1976 8.21401 50.1959 8.57786H45.1143ZM54.5255 6.11767H58.2933V15.6632H61.0035V6.10947H64.7713V3.82149H54.5255V6.11767ZM76.0664 5.232C75.5717 4.68855 74.9623 4.26014 74.2816 3.9773C73.5624 3.67787 72.7893 3.52719 72.0094 3.53447C71.2321 3.52598 70.4614 3.67673 69.7454 3.9773C69.0668 4.26383 68.4582 4.69171 67.9607 5.232C67.4444 5.80161 67.0483 6.46802 66.7956 7.19195C66.5099 8.01187 66.3701 8.87487 66.3825 9.74234C66.371 10.6124 66.5108 11.478 66.7956 12.3009C67.0469 13.0262 67.44 13.6951 67.9524 14.2691C68.4479 14.808 69.0535 15.2358 69.7289 15.5238C70.4513 15.8324 71.2313 15.9861 72.0177 15.9748C72.8066 15.9848 73.589 15.8312 74.3147 15.5238C74.995 15.2327 75.6038 14.7991 76.0994 14.2527C76.609 13.6794 76.9968 13.01 77.2397 12.2845C77.518 11.4602 77.6549 10.5953 77.6446 9.72594C77.6569 8.85847 77.5171 7.99546 77.2314 7.17555C76.9725 6.45515 76.5739 5.79208 76.0581 5.2238L76.0664 5.232ZM74.1081 12.5716C73.8641 12.8941 73.5478 13.1559 73.1843 13.3362C72.8207 13.5165 72.4199 13.6103 72.0135 13.6103C71.6071 13.6103 71.2063 13.5165 70.8428 13.3362C70.4792 13.1559 70.1629 12.8941 69.9189 12.5716C69.376 11.7299 69.113 10.7403 69.167 9.74234C69.1138 8.75479 69.3771 7.77588 69.9189 6.94593C70.1649 6.6263 70.4819 6.36727 70.8452 6.18899C71.2085 6.0107 71.6083 5.91795 72.0135 5.91795C72.4188 5.91795 72.8186 6.0107 73.1819 6.18899C73.5452 6.36727 73.8621 6.6263 74.1081 6.94593C74.65 7.77588 74.9132 8.75479 74.86 9.74234C74.9093 10.7384 74.6435 11.7247 74.0999 12.5634L74.1081 12.5716ZM82.66 5.30581C82.66 5.85251 82.66 6.39922 82.66 6.94593C82.66 7.49264 82.627 8.05575 82.5609 8.63526C82.5058 9.18197 82.4314 9.70681 82.3378 10.2098C82.2531 10.6698 82.1145 11.1185 81.9246 11.5465C81.7172 12.0545 81.3848 12.5027 80.9579 12.8504C80.4374 13.2348 79.8306 13.4881 79.1897 13.5884L79.5698 15.8764C80.3792 15.8145 81.1683 15.5944 81.8916 15.2286C82.4871 14.9013 83.0144 14.4643 83.445 13.9411C83.8671 13.4528 84.2049 12.8986 84.4448 12.3009C84.6874 11.6558 84.8645 10.9882 84.9736 10.3082C85.0868 9.60771 85.1585 8.90124 85.1884 8.19243C85.216 7.47624 85.238 6.78465 85.2545 6.11767H88.2373V15.6632H90.9475V3.82149H82.6848L82.66 5.30581ZM103.664 5.2402C103.169 4.69675 102.56 4.26834 101.879 3.98551C101.16 3.68607 100.387 3.53539 99.6068 3.54267C98.8295 3.53418 98.0588 3.68494 97.3428 3.98551C96.6642 4.27203 96.0556 4.69992 95.5581 5.2402C95.0418 5.80981 94.6457 6.47622 94.3931 7.20015C94.1072 8.02003 93.9674 8.88305 93.9799 9.75055C93.9684 10.6206 94.1082 11.4862 94.3931 12.3091C94.6443 13.0344 95.0374 13.7033 95.5498 14.2773C96.0412 14.8212 96.6441 15.2546 97.318 15.5484C98.0405 15.857 98.8204 16.0107 99.6068 15.9994C100.396 16.0094 101.178 15.8558 101.904 15.5484C102.584 15.2573 103.193 14.8237 103.689 14.2773C104.198 13.704 104.586 13.0346 104.829 12.3091C105.107 11.4848 105.244 10.6199 105.234 9.75055C105.246 8.88307 105.106 8.02007 104.821 7.20015C104.565 6.47103 104.166 5.79936 103.647 5.2238L103.664 5.2402ZM101.706 12.5798C101.462 12.9023 101.145 13.1641 100.782 13.3444C100.418 13.5247 100.017 13.6185 99.6109 13.6185C99.2045 13.6185 98.8037 13.5247 98.4402 13.3444C98.0766 13.1641 97.7604 12.9023 97.5163 12.5798C96.9734 11.7381 96.7104 10.7485 96.7644 9.75055C96.7113 8.76299 96.9745 7.78408 97.5163 6.95413C97.7624 6.6345 98.0793 6.37547 98.4426 6.19719C98.8059 6.0189 99.2057 5.92615 99.6109 5.92615C100.016 5.92615 100.416 6.0189 100.779 6.19719C101.143 6.37547 101.46 6.6345 101.706 6.95413C102.247 7.78408 102.511 8.76299 102.457 9.75055C102.502 10.7447 102.234 11.728 101.689 12.5634L101.706 12.5798ZM108.258 3.83789V15.6632H110.968V6.08487H116V3.82149L108.258 3.83789Z" fill="#34495E"/>
</svg>
