<svg width="76" height="29" viewBox="0 0 76 29" fill="none" xmlns="http://www.w3.org/2000/svg">
<path fill-rule="evenodd" clip-rule="evenodd" d="M1.76977 28.0629L1.81976 28.0831C1.83759 28.0892 1.85578 28.0942 1.87422 28.0981C2.07298 28.1606 2.27992 28.1931 2.48824 28.1946H13.3131L6.21192 21.0566C4.89882 22.3647 4.03113 23.2255 3.39174 23.868C2.82398 24.4356 2.43602 24.8253 2.07641 25.191L1.32063 25.9471C1.09079 26.1986 0.963521 26.5275 0.964006 26.8685C0.962708 27.1258 1.03894 27.3775 1.18271 27.5906C1.32648 27.8037 1.5311 27.9683 1.76977 28.0629Z" fill="#FF4F12"/>
<path fill-rule="evenodd" clip-rule="evenodd" d="M0.961242 26.8756C0.960757 26.5345 1.08803 26.2057 1.31787 25.9542L2.07364 25.198C2.43325 24.8323 2.81972 24.4427 3.38898 23.875C4.02837 23.2363 4.89605 22.3718 6.20915 21.0637L7.48867 19.7923L7.51404 19.7668C9.64335 17.6413 12.6694 14.6251 17.1041 10.1923L7.35736 0.415039L1.83639 5.95395C0.186813 7.60755 0.40989 8.68975 0.40989 10.9103V26.1075C0.409614 26.5335 0.539534 26.9494 0.782165 27.2992C1.0248 27.649 1.36849 27.9159 1.767 28.064C1.52928 27.9698 1.32532 27.8061 1.18163 27.5941C1.03793 27.3822 0.961146 27.1318 0.961242 26.8756Z" fill="#7700FF"/>
<path fill-rule="evenodd" clip-rule="evenodd" d="M62.5959 18.1846H60.9724L59.0318 20.1515V18.1846H57.6591V23.6038H59.0318V21.3639L61.0045 23.6038H62.6615L60.1107 20.6975L62.5959 18.1846Z" fill="black"/>
<path fill-rule="evenodd" clip-rule="evenodd" d="M19.017 19.6484H17.0332V17.2424H19.017C20.0197 17.2424 20.4771 17.7233 20.4771 18.4443C20.4771 19.1653 20.019 19.6462 19.017 19.6462V19.6484ZM19.0603 15.9561H15.5947V23.6033H17.0332V20.9378H19.0603C20.7822 20.9378 21.9155 20.053 21.9155 18.4465C21.9155 16.8401 20.7829 15.9561 19.0603 15.9561Z" fill="black"/>
<path fill-rule="evenodd" clip-rule="evenodd" d="M25.1623 22.467C24.3558 22.467 23.6038 21.8881 23.6038 20.8964C23.6038 19.9047 24.3558 19.3259 25.1623 19.3259C25.9688 19.3259 26.7209 19.9047 26.7209 20.8964C26.7209 21.8881 25.9688 22.467 25.1623 22.467ZM25.1623 18.0312C23.6799 18.0312 22.2086 18.993 22.2086 20.8934C22.2086 22.7938 23.6821 23.7564 25.1623 23.7564C26.6426 23.7564 28.1161 22.7953 28.1161 20.8942C28.1161 18.993 26.6463 18.0312 25.1623 18.0312Z" fill="black"/>
<path fill-rule="evenodd" clip-rule="evenodd" d="M31.6238 22.4676C30.7956 22.4676 30.1853 21.8693 30.1853 20.8971C30.1853 19.9248 30.8173 19.3265 31.6238 19.3265C32.1139 19.3265 32.5392 19.5561 32.8772 20.0691L34.0545 19.3915C33.6621 18.5502 32.8123 18.0371 31.635 18.0371C30.098 18.0371 28.7902 19.1732 28.7902 20.8993C28.7902 22.6254 30.0324 23.7615 31.635 23.7615C32.7899 23.7615 33.5643 23.238 34.109 22.3083L32.9757 21.6853C32.6481 22.1401 32.2997 22.4676 31.6238 22.4676Z" fill="black"/>
<path fill-rule="evenodd" clip-rule="evenodd" d="M46.2455 21.2547C46.1799 22.0849 46.0165 22.2703 45.733 22.2703C45.5919 22.2731 45.4513 22.2542 45.3159 22.2142L45.3226 23.6165C45.4817 23.6557 45.6453 23.6733 45.8091 23.6689C46.9752 23.6689 47.4109 22.915 47.5206 21.3093L47.6511 19.4193H49.1985V23.5926H50.572V18.1846H46.4746L46.2455 21.2547Z" fill="black"/>
<path fill-rule="evenodd" clip-rule="evenodd" d="M40.8461 20.1732C41.0423 19.5614 41.5869 19.0805 42.3061 19.0805C43.0694 19.0805 43.5812 19.4956 43.7117 20.1732H40.8461ZM42.3502 18.032C40.7834 18.032 39.5054 19.1793 39.5054 20.8942C39.5054 22.6091 40.7804 23.7564 42.2845 23.7564C43.4723 23.7564 44.2243 23.3077 44.7697 22.3795L43.6797 21.8336C43.3417 22.2599 43.0365 22.5762 42.3061 22.5762C41.4996 22.5762 40.911 22.0527 40.8237 21.2218H44.9868V20.7409C44.9875 19.1568 43.8975 18.0312 42.3494 18.0312L42.3502 18.032Z" fill="black"/>
<path fill-rule="evenodd" clip-rule="evenodd" d="M52.6814 20.1732C52.8776 19.5614 53.4223 19.0805 54.1415 19.0805C54.904 19.0805 55.4165 19.4956 55.5478 20.1732H52.6814ZM54.1848 18.0312C52.618 18.0312 51.34 19.1785 51.34 20.8934C51.34 22.6084 52.618 23.7564 54.1198 23.7564C55.3076 23.7564 56.0596 23.3077 56.605 22.3795L55.515 21.8336C55.177 22.2599 54.8719 22.5762 54.1415 22.5762C53.335 22.5762 52.7463 22.0527 52.659 21.2218H56.8221V20.7409C56.8229 19.1568 55.7329 18.0312 54.1848 18.0312Z" fill="black"/>
<path fill-rule="evenodd" clip-rule="evenodd" d="M34.5361 19.3864H36.1492V23.6038H37.5219V19.3864H39.135V18.1846H34.5361V19.3864Z" fill="black"/>
<path fill-rule="evenodd" clip-rule="evenodd" d="M65.3873 22.467C64.5808 22.467 63.8288 21.8881 63.8288 20.8964C63.8288 19.9047 64.5808 19.3259 65.3873 19.3259C66.1938 19.3259 66.9459 19.9047 66.9459 20.8964C66.9459 21.8881 66.1938 22.467 65.3873 22.467ZM65.3873 18.0312C63.9049 18.0312 62.4336 18.993 62.4336 20.8934C62.4336 22.7938 63.9049 23.7556 65.3873 23.7556C66.8698 23.7556 68.341 22.7938 68.341 20.8934C68.341 18.993 66.8683 18.0312 65.3873 18.0312Z" fill="black"/>
<path fill-rule="evenodd" clip-rule="evenodd" d="M73.8053 18.1836L72.3146 21.9784L70.824 18.1836H69.0297V23.5931H70.3346V20.1685L71.7819 23.5931H72.8481L74.2947 20.1685V23.5931H75.6004V18.1836H73.8053Z" fill="black"/>
</svg>
