<svg width="88" height="30" viewBox="0 0 88 30" fill="none" xmlns="http://www.w3.org/2000/svg">
<path d="M42.806 17.79H36.6066C35.9178 17.79 35.5242 18.2788 35.5242 18.8654V25.904C35.5242 26.5884 36.0162 26.9794 36.6558 26.9794C37.2462 26.9794 37.7382 26.5884 37.7382 25.904V19.9407H41.6743V25.904C41.6743 26.5884 42.1664 26.9794 42.806 26.9794C43.3964 26.9794 43.9376 26.5884 43.9376 25.8552V18.8654C43.9376 18.2788 43.544 17.79 42.806 17.79Z" fill="#FF6900"/>
<path d="M53.5816 17.79H53.4832C52.8436 17.79 52.4008 18.1322 51.958 18.7676L48.3663 23.8511V18.9143C48.3663 18.23 47.9235 17.8389 47.333 17.8389C46.6934 17.8389 46.2506 18.23 46.2506 18.9143V25.7085C46.2506 26.4417 46.7426 26.9305 47.4806 26.9305H47.5791C48.2679 26.9305 48.7107 26.5884 49.1535 25.9529L52.7452 20.8695V25.8552C52.7452 26.5395 53.188 26.9305 53.8276 26.9305C54.418 26.9305 54.9101 26.5395 54.9101 25.8552V19.0609C54.8609 18.2788 54.418 17.79 53.5816 17.79Z" fill="#FF6900"/>
<path d="M65.9306 24.7799H65.3894V18.8166C65.3894 18.1322 64.8973 17.7412 64.2577 17.7412C63.6673 17.7412 63.1753 18.1322 63.1753 18.8166V24.7799H59.3376V18.8166C59.3376 18.1322 58.8456 17.7412 58.206 17.7412C57.5663 17.7412 57.0743 18.1322 57.0743 18.8166V25.8552C57.0743 26.4418 57.4679 26.9306 58.1568 26.9306H64.7989V27.9082C64.7989 28.5925 65.291 28.9835 65.8814 28.9835C66.521 28.9835 66.9638 28.5925 66.9638 27.9082V25.9041C67.013 25.1709 66.6194 24.7799 65.9306 24.7799Z" fill="#FF6900"/>
<path d="M77.0496 24.7799H76.5084V18.8166C76.5084 18.1322 76.0164 17.7412 75.3768 17.7412C74.7864 17.7412 74.2943 18.1322 74.2943 18.8166V24.7799H70.4566V18.8166C70.4566 18.1322 69.9646 17.7412 69.325 17.7412C68.6854 17.7412 68.1934 18.1322 68.1934 18.8166V25.8552C68.1934 26.4418 68.587 26.9306 69.2758 26.9306H75.918V27.9082C75.918 28.5925 76.41 28.9835 77.0004 28.9835C77.64 28.9835 78.0828 28.5925 78.0828 27.9082V25.9041C78.1321 25.1709 77.7384 24.7799 77.0496 24.7799Z" fill="#FF6900"/>
<path d="M87.874 25.3664L84.8727 18.8165C84.5283 18.0833 84.0363 17.79 83.3967 17.79H83.2983C82.6094 17.79 82.1174 18.0833 81.773 18.8165L78.7717 25.3664C78.4765 26.0018 78.6733 26.5884 79.2638 26.7839C79.805 26.9794 80.3462 26.8816 80.6414 26.2462L81.3302 24.8287C81.9206 25.0242 82.7079 25.122 83.3967 25.122C84.1347 25.122 84.8235 25.0242 85.3647 24.8287L86.0043 26.2462C86.2995 26.8816 86.8408 26.9794 87.382 26.7839C87.9232 26.5884 88.1692 26.0018 87.874 25.3664ZM83.3475 23.2157C82.9047 23.2157 82.4126 23.1668 82.019 23.069L83.2983 20.234L84.5775 23.069C84.2331 23.1668 83.7903 23.2157 83.3475 23.2157Z" fill="#FF6900"/>
<path d="M45.4626 10.1645H44.9214V4.29898C44.9214 3.71243 44.5278 3.22363 43.839 3.22363H38.722C38.1316 3.22363 37.738 3.61467 37.738 4.29898V5.71649C37.738 6.74296 37.738 7.52503 37.5412 8.40487C37.3444 9.23582 37.1476 9.77349 36.8032 10.1645H36.5572C35.8683 10.1645 35.5239 10.6044 35.5239 11.2399V13.2928C35.5239 13.9771 36.0159 14.3682 36.6064 14.3682C37.246 14.3682 37.6888 13.9771 37.6888 13.2928V12.3152H44.3802V13.2928C44.3802 13.9771 44.8722 14.3682 45.4626 14.3682C46.1022 14.3682 46.545 13.9771 46.545 13.2928V11.2399C46.545 10.6533 46.2006 10.1645 45.4626 10.1645ZM42.7073 10.1645H39.1156C39.3616 9.67573 39.5092 9.2847 39.6568 8.60038C39.8044 7.91607 39.8536 7.23176 39.9029 6.35192V5.27657H42.7073V10.1645Z" fill="#FF6900"/>
<path d="M51.7609 3.12598C49.104 3.12598 47.0868 5.13004 47.0868 7.76953C47.0868 10.4579 49.1533 12.4131 51.7609 12.4131C54.4178 12.4131 56.4351 10.3601 56.4351 7.76953C56.4843 5.08116 54.4178 3.12598 51.7609 3.12598ZM51.7609 10.3113C50.3341 10.3113 49.2517 9.23592 49.2517 7.72065C49.2517 6.25427 50.2849 5.17892 51.7609 5.17892C53.237 5.17892 54.2702 6.25427 54.2702 7.72065C54.2702 9.23592 53.2862 10.3113 51.7609 10.3113Z" fill="#FF6900"/>
<path d="M72.8672 3.12598C70.2104 3.12598 68.1931 5.13004 68.1931 7.76953C68.1931 10.4579 70.2596 12.4131 72.8672 12.4131C75.5241 12.4131 77.5414 10.3601 77.5414 7.76953C77.5906 5.08116 75.5241 3.12598 72.8672 3.12598ZM72.8672 10.3113C71.4404 10.3113 70.358 9.23592 70.358 7.72065C70.358 6.25427 71.3912 5.17892 72.8672 5.17892C74.3433 5.17892 75.3765 6.25427 75.3765 7.72065C75.3765 9.23592 74.3925 10.3113 72.8672 10.3113Z" fill="#FF6900"/>
<path d="M66.6687 10.1645H66.1275V4.29898C66.1275 3.71243 65.7338 3.22363 65.045 3.22363H59.9773C59.3869 3.22363 58.9932 3.61467 58.9932 4.29898V5.71649C58.9932 6.74296 58.9932 7.52503 58.7964 8.40487C58.5996 9.23582 58.4028 9.77349 58.0584 10.1645H57.8124C57.1236 10.1645 56.7792 10.6044 56.7792 11.2399V13.2928C56.7792 13.9771 57.2712 14.3682 57.8616 14.3682C58.5012 14.3682 58.944 13.9771 58.944 13.2928V12.3152H65.6354V13.2928C65.6354 13.9771 66.1275 14.3682 66.7179 14.3682C67.3575 14.3682 67.8003 13.9771 67.8003 13.2928V11.2399C67.7511 10.6533 67.4067 10.1645 66.6687 10.1645ZM63.8642 10.1645H60.2725C60.5185 9.67573 60.6661 9.2847 60.8137 8.60038C60.9613 7.91607 61.0105 7.23176 61.0597 6.35192V5.27657H63.8642V10.1645Z" fill="#FF6900"/>
<path d="M13.2844 0.339844C21.8946 0.339844 28.5368 6.20539 28.5368 15.0037C28.5368 23.802 21.8946 29.8142 13.2352 29.8142H3.5917C1.62365 29.8142 0 28.5433 0 26.2949V4.00581C0 1.75735 1.62365 0.339844 3.5917 0.339844H13.2844Z" fill="#FF6900"/>
<path d="M6.7401 15.7855C6.7401 13.0483 5.85447 10.6043 6.14968 9.04015L6.10048 8.94239C5.11645 9.96886 4.47683 9.72446 4.37843 9.38231C4.23083 8.69799 5.41166 7.91592 6.05128 7.62265C6.05128 7.57377 6.10048 7.52488 6.10048 7.47601C5.46086 7.57376 4.72284 7.47601 4.72284 7.03609C4.67364 6.49842 5.75607 6.0585 7.13371 6.15626C7.18291 6.15626 7.18291 6.10738 7.23211 6.10738C7.13371 6.0585 7.03531 6.00962 6.9369 5.96074C6.59249 5.76522 6.49409 5.47194 6.59249 5.22755C6.7401 4.98315 7.13371 4.88539 7.42892 4.88539C7.92093 4.88539 8.36375 5.03203 8.65895 5.12979C8.70816 5.12979 8.70816 5.08091 8.75736 5.08091C8.65895 4.98315 8.56055 4.88539 8.46215 4.78763C8.36374 4.64099 8.36375 4.44547 8.51135 4.29884C8.70816 4.1522 9.20017 4.10332 9.64298 4.49435C9.74139 4.59211 9.79059 4.64099 9.88899 4.73875C9.93819 4.73875 9.98739 4.73875 10.0366 4.68987C9.98739 4.59211 9.88899 4.44547 9.88899 4.34772C9.83979 4.20108 9.88899 4.05444 10.0858 4.00556C10.2826 3.95668 10.5286 4.05444 10.627 4.24996C10.7746 4.44547 10.8238 4.68987 10.873 4.88539C9.88899 4.98315 7.28131 5.5697 7.28131 8.69799C7.28131 11.7285 9.83979 14.9546 9.83979 19.647C9.83979 21.3578 9.44618 23.0686 7.87173 25.0726C6.6417 26.6368 4.72284 28.1032 1.77076 29.3252C2.26277 29.5696 2.85319 29.7162 3.49281 29.7162H4.57524C7.03531 28.3476 8.26534 27.1256 9.15097 25.9525C10.8238 26.6857 12.3983 26.9789 13.8251 26.9789C16.5312 26.9789 18.8436 25.757 20.0245 23.5574C21.2545 22.8242 22.0909 21.3089 22.1401 20.2336C22.9274 19.256 23.075 18.0829 22.829 17.2519C22.7798 17.0564 22.6322 17.0564 22.3369 17.203C19.9261 18.6694 17.5644 19.3537 15.3011 19.3537C13.9235 19.3537 12.5459 19.1582 11.0698 18.7183C10.9714 17.1542 10.627 15.7855 10.5286 15.0035C10.3318 13.9281 10.5778 13.146 11.7586 13.146C12.6443 13.146 14.2187 13.3415 15.4979 13.9281C16.7772 14.5147 17.5152 15.6389 18.0564 15.6389C18.2532 15.6389 18.4992 15.4922 18.4992 15.0523C18.4992 14.1236 18.1548 12.7061 17.7612 12.1684C18.9421 12.1196 19.8769 12.1196 20.4181 12.1684C21.5005 12.364 21.5497 12.9016 21.7957 13.2438C21.9925 13.5859 22.3861 13.7326 22.829 13.7326C23.6654 13.7326 24.1574 13.2927 24.1574 11.7774C24.1574 8.4536 22.0417 6.84057 19.8277 6.84057C18.0072 6.84057 17.3184 7.23161 15.5964 7.23161C14.3663 7.23161 13.3823 4.73875 11.9554 4.44547C11.365 3.07685 9.98739 2.93021 9.10177 3.61452C8.31454 3.12573 7.13371 3.419 7.08451 4.24996C6.19888 3.95668 5.06725 4.44547 5.55926 5.61858C3.3944 5.66746 3.00079 7.57376 4.47683 7.81816C2.60718 8.89351 3.4436 10.7021 5.01805 10.311C5.11645 11.6308 5.65767 13.7326 5.65767 15.199C5.65767 17.203 4.72284 17.6918 3.49281 17.6918C2.50878 17.6918 1.03273 17.3497 0.0487061 17.0564V18.4739C1.03273 18.7183 2.55798 19.0605 3.68961 19.0605C5.60847 19.1582 6.7401 17.9851 6.7401 15.7855ZM11.119 20.3802C12.4967 20.7712 14.3663 20.9668 15.9408 20.869C18.696 20.6735 20.7625 19.647 21.8941 18.9138C21.2053 20.6735 18.5976 21.7488 16.0392 22.0421C16.0392 22.1887 15.99 22.2865 15.99 22.4331C17.9088 22.3354 19.6801 21.6999 20.5165 21.1623C20.0245 22.8731 17.712 23.5574 15.5964 23.6551C15.5472 23.8018 15.498 23.8995 15.3995 24.0462C16.6296 24.0462 17.8104 23.8506 18.4992 23.6063C17.9088 24.7794 15.744 25.757 13.5299 25.757C12.4475 25.757 11.0698 25.5614 9.88899 24.9749C10.7254 23.4107 11.0698 21.8466 11.119 20.3802ZM16.6296 10.6532C16.9248 9.77334 17.1708 9.08903 17.6628 8.60024C18.1548 8.06256 18.7452 7.91592 19.9753 7.91592C21.6973 7.91592 23.1242 9.6267 23.1242 12.0707C23.1242 12.4128 22.6322 12.4128 22.4846 12.1196C21.8941 11.0931 21.1069 10.9465 19.8277 10.8487C18.8928 10.7998 17.8104 10.8487 16.7772 10.8976C16.6296 10.8487 16.5804 10.7509 16.6296 10.6532Z" fill="black"/>
<path d="M0 22.873C1.03323 22.6775 2.06646 22.482 2.06646 22.482L2.21406 21.9443C1.72205 21.9443 0.787222 21.9443 0 21.9443V22.873Z" fill="black"/>
<path d="M11.2175 6.20511C11.5619 6.10735 12.1031 6.4495 12.3984 6.98718C12.6936 7.52485 12.5952 8.11141 12.2508 8.20917C11.9063 8.3558 11.3651 7.96477 11.0699 7.42709C11.0207 7.32933 11.0207 7.28046 10.9715 7.1827H11.0207C11.1191 7.28046 11.2667 7.32934 11.3651 7.28046C11.5127 7.1827 11.4635 6.98718 11.3651 6.79166C11.2667 6.64502 11.1191 6.4495 10.9715 6.49838L10.9223 6.4495C11.0207 6.35174 11.1191 6.25398 11.2175 6.20511ZM13.776 11.8263C12.1523 11.4841 10.3811 10.9953 9.39707 9.62667C9.39707 9.57779 9.34787 9.57779 9.29867 9.57779C9.29867 9.62667 9.29867 9.62667 9.29867 9.67555C9.29867 9.77331 9.29867 9.82219 9.29867 9.91995L9.15107 9.96883C8.90506 9.62667 8.85586 9.18676 9.10186 8.89348C9.44627 8.45356 10.1843 8.50244 10.6271 8.74684L10.5779 8.8446C10.3319 8.79572 10.1351 8.79572 9.93829 8.89348C9.79068 9.04012 9.79068 9.13788 9.88909 9.3334C10.6763 10.7998 12.9888 11.0931 15.6948 10.8975C15.9901 10.8975 16.0393 10.7509 16.0885 10.6043C16.3345 9.67555 16.7773 8.8446 17.4169 8.20917C16.9249 8.25805 16.4329 8.30693 16.0393 8.30693C14.6124 8.40468 13.8252 8.20917 13.5792 8.01365L13.6284 7.91589C13.776 7.96477 13.9236 7.96477 13.9728 7.91589C14.022 7.86701 13.9728 7.81813 13.9236 7.76925C13.6776 7.52485 12.4476 6.30286 12.4476 6.30286C12.3 5.22752 10.7747 5.17864 10.1351 6.20511L9.93829 6.15623C9.98749 5.91183 10.0859 5.76519 10.1843 5.61855C8.90506 5.91183 8.21624 7.03606 8.06864 8.11141C7.52742 12.8038 14.6616 11.7285 16.7281 13.5859C16.7773 13.6348 16.8757 13.7326 16.9249 13.6837C17.0233 13.4393 16.0885 12.3639 13.776 11.8263Z" fill="white"/>
<path d="M21.894 18.8652C20.7132 19.5984 18.6467 20.6249 15.9407 20.8204C14.3662 20.9182 12.4966 20.7227 11.1189 20.3316C11.1189 20.7715 11.0697 21.2603 10.9713 21.7002C11.7585 21.8958 13.087 22.1402 15.1042 22.189C15.0058 22.7267 14.4646 24.4864 13.087 25.6595C15.5962 25.7573 17.8595 24.7797 18.5483 23.5088C17.8595 23.7532 16.6787 23.9487 15.4486 23.9487C15.4978 23.8509 15.5962 23.7043 15.6454 23.5577C17.7611 23.4599 20.0736 22.7756 20.5656 21.0648C19.7292 21.6025 17.9579 22.2379 16.0391 22.3357C16.0391 22.2379 16.0883 22.0913 16.0883 21.9446C18.5975 21.7002 21.2052 20.6249 21.894 18.8652Z" fill="white"/>
</svg>
