<svg width="85" height="37" viewBox="0 0 85 37" fill="none" xmlns="http://www.w3.org/2000/svg">
<g clip-path="url(#clip0_560_132)">
<path d="M60.722 3.27382V4.61756H72.2913C73.0578 4.61756 74.2158 4.61756 74.986 5.39571C75.7562 6.17386 75.7561 7.31983 75.7561 8.09429V19.6556C75.7561 20.4227 75.7562 21.5853 74.986 22.3524C74.2158 23.1194 73.0578 23.125 72.2913 23.125H66.695C65.7328 23.125 64.4787 23.125 63.9967 22.0622C63.5146 20.9994 64.1814 20.0401 64.7687 19.2693L72.2821 9.25504H60.722L56.1047 15.4211C55.3364 16.4543 54.6641 17.3452 54.6641 18.5004C54.6641 19.6556 55.2809 20.4929 56.1047 21.5871L57.2664 23.1268C58.4134 24.6665 59.5732 26.2117 61.1117 26.9843C62.6502 27.7569 64.4843 27.7513 66.9906 27.7513H71.9995C74.8844 27.7513 79.2247 27.7513 82.1096 24.8642C84.9946 21.9771 84.9982 17.7315 84.9982 16.1863V11.5655C84.9982 10.0239 84.9983 5.78386 82.1096 2.89676C79.221 0.00965894 74.8862 0.0078125 71.9995 0.0078125H64.0022C63.2357 0.0078125 62.2679 0.00781135 61.5014 0.774871C60.735 1.54193 60.7202 2.50491 60.7202 3.27937" fill="#D35243"/>
<path d="M45.8818 9.25293H57.4363L43.5695 27.7529H32.0168L45.8818 9.25293Z" fill="#D35243"/>
<path d="M0 12.5209C0 11.7538 7.04553e-07 10.789 0.768329 10.0164C1.53666 9.2438 2.50076 9.25489 3.27463 9.25489H22.6287C25.1332 9.25489 26.9672 9.25489 28.502 10.0164C30.0368 10.7779 31.2022 12.3342 32.364 13.8739L33.5128 15.4209C34.331 16.5115 34.9589 17.3451 34.9589 18.5003C34.9589 19.6555 34.2885 20.5519 33.5128 21.587L28.8954 27.7549H17.3299L24.8432 17.7295C25.4232 16.9625 26.0955 15.9995 25.6171 14.933C25.1387 13.8665 23.8791 13.872 22.9132 13.872H13.8724V37.0003H4.63767V13.872H0.0203165V12.5209" fill="#D35243"/>
</g>
<defs>
<clipPath id="clip0_560_132">
<rect width="85" height="37" fill="white"/>
</clipPath>
</defs>
</svg>
