<svg width="111" height="31" viewBox="0 0 111 31" fill="none" xmlns="http://www.w3.org/2000/svg">
<g clip-path="url(#clip0_560_137)">
<path d="M6.4274 0.0311659C7.18611 -0.0757307 7.94483 0.0739245 8.68187 0.234269C10.2752 0.619097 11.7167 1.58117 12.6597 2.90668C13.6027 4.18944 14.0471 5.80358 13.9387 7.37496C13.8411 9.01048 13.1041 10.6032 11.9227 11.7577C10.7846 12.9015 9.21297 13.6177 7.59799 13.746C5.54946 13.9384 3.42506 13.1688 2.00518 11.7043C0.71536 10.4322 0.0325164 8.62565 0 6.84048C0.0650327 5.32255 0.574456 3.80461 1.54995 2.60737C2.72054 1.1322 4.54145 0.22358 6.4274 0.0311659Z" fill="#47A2DA"/>
<path d="M21.7209 1.65623C22.924 1.39968 24.2246 1.51726 25.3302 2.06244C26.8476 2.77864 27.9857 4.24313 28.2892 5.87864C28.5818 7.33244 28.235 8.88244 27.3462 10.0797C26.5333 11.2021 25.2543 11.9824 23.8669 12.2069C22.3278 12.4848 20.6695 12.0466 19.4664 11.0631C18.415 10.208 17.6997 8.95726 17.5371 7.61037C17.3203 6.0283 17.8514 4.36071 18.9787 3.20623C19.7049 2.43657 20.6803 1.8914 21.7209 1.65623Z" fill="#F16164"/>
<path d="M46.531 4.58523C47.5932 4.58523 48.6554 4.58523 49.7176 4.58523C52.4273 11.8863 55.1478 19.198 57.8684 26.499C56.4051 26.4883 54.9419 26.499 53.4787 26.499C52.9584 25.0987 52.449 23.6983 51.907 22.3087C49.3816 22.3087 46.8562 22.3087 44.3307 22.3087C43.7996 23.6983 43.2902 25.0987 42.7699 26.499C41.3067 26.5097 39.8326 26.499 38.3694 26.5097C41.1008 19.198 43.8105 11.8863 46.531 4.58523ZM48.0051 12.3673C47.1922 14.5907 46.3467 16.8035 45.5338 19.027C47.2572 19.0163 48.9914 19.0163 50.7148 19.027C49.8693 16.7073 49.0022 14.409 48.146 12.1001C48.0918 12.1856 48.0376 12.2711 48.0051 12.3673ZM75.9149 4.64937C77.0747 4.26454 78.4621 4.78833 79.0473 5.8573C79.6001 6.80868 79.4701 8.08075 78.7222 8.89316C77.8117 9.96213 76.0125 10.069 74.972 9.11764C74.0507 8.34799 73.8122 6.94764 74.3758 5.91075C74.701 5.31213 75.2646 4.85247 75.9149 4.64937ZM84.3258 7.41799C85.7024 7.41799 87.0789 7.41799 88.4446 7.41799C88.4337 8.78626 88.4446 10.1652 88.4446 11.5335C90.1029 11.5549 91.7504 11.5335 93.4087 11.5442C93.4087 12.6345 93.3979 13.7249 93.4087 14.8152C91.7504 14.8259 90.0921 14.8045 88.4446 14.8259C88.4446 16.8997 88.4446 18.9842 88.4446 21.0687C88.4229 21.817 88.8456 22.5545 89.5393 22.8859C90.5798 23.399 91.8046 23.2601 92.8993 22.9821C93.0727 24.0511 93.2353 25.1307 93.3979 26.1997C91.6095 26.8839 89.6043 26.9907 87.7617 26.467C86.6995 26.157 85.7132 25.5049 85.1279 24.5535C84.5643 23.6342 84.3584 22.5438 84.3258 21.4856C84.3258 19.2621 84.3258 17.0494 84.3258 14.8259C83.2311 14.8152 82.1472 14.8259 81.0525 14.8259C81.0525 13.7356 81.0525 12.6452 81.0525 11.5442C82.1472 11.5442 83.2311 11.5442 84.3258 11.5442C84.3258 10.1652 84.3258 8.78626 84.3258 7.41799ZM101.386 11.2876C103.034 10.9883 104.789 11.1914 106.318 11.8863C107.911 12.5918 109.255 13.8318 110.079 15.3497C110.848 16.7607 111.141 18.4176 110.935 19.9997C110.729 21.6245 109.96 23.1745 108.8 24.3504C107.532 25.6545 105.808 26.5097 103.998 26.7449C102.286 26.9801 100.508 26.6594 98.9907 25.8576C97.3324 24.9811 95.9884 23.5166 95.3055 21.7742C94.7202 20.299 94.6335 18.6314 95.0237 17.0921C95.7499 14.1418 98.3729 11.8007 101.386 11.2876ZM102.275 15.0504C101.028 15.2214 99.8795 15.9911 99.2508 17.0707C98.6114 18.1397 98.5355 19.5187 99.0557 20.6518C99.7169 22.1376 101.332 23.1318 102.979 23.089C104.28 23.0676 105.559 22.4156 106.318 21.368C107.055 20.3738 107.293 19.0376 106.903 17.8618C106.318 15.9697 104.237 14.719 102.275 15.0504ZM56.5569 11.5442C57.9334 11.5442 59.3099 11.5442 60.6756 11.5442C62.0413 15.1573 63.3528 18.7918 64.7293 22.4049C66.1058 18.7918 67.4282 15.1573 68.7939 11.5442C70.1704 11.5442 71.5361 11.5442 72.9126 11.5442C71.07 16.5256 69.1949 21.4963 67.3631 26.4883C65.6181 26.5204 63.8839 26.4883 62.1388 26.499C60.2637 21.5176 58.4211 16.5256 56.5569 11.5442ZM74.6685 11.5442C76.045 11.5442 77.4107 11.5442 78.7872 11.5442C78.7872 16.5256 78.7872 21.5176 78.7872 26.499C77.4107 26.499 76.045 26.499 74.6685 26.499C74.6685 21.507 74.6685 16.5256 74.6685 11.5442Z" fill="black"/>
<path d="M21.8078 14.3448C23.3035 14.1631 24.8535 14.3448 26.2517 14.9328C28.1918 15.7345 29.7959 17.2738 30.6522 19.1659C31.5193 21.0472 31.6494 23.2493 30.999 25.2162C30.0669 28.1879 27.303 30.4969 24.1814 30.9031C22.0462 31.2238 19.8026 30.7107 18.0467 29.4707C16.4859 28.391 15.3153 26.7662 14.7951 24.949C14.2748 23.1317 14.3832 21.1328 15.1311 19.3797C16.2366 16.6966 18.8813 14.7083 21.8078 14.3448Z" fill="#97CA3D"/>
<path d="M6.10232 18.8457C7.81484 18.4288 9.73331 19.3053 10.5029 20.866C11.034 21.8708 11.0665 23.1108 10.6221 24.1584C10.1452 25.2808 9.10466 26.1574 7.90156 26.4246C6.27574 26.8309 4.45482 26.0826 3.60939 24.6502C2.6881 23.1857 2.91571 21.1333 4.16217 19.9253C4.68244 19.3908 5.37612 19.0167 6.10232 18.8457Z" fill="#AA75B2"/>
</g>
<defs>
<clipPath id="clip0_560_137">
<rect width="111" height="31" fill="white"/>
</clipPath>
</defs>
</svg>
