<svg width="140" height="28" viewBox="0 0 140 28" fill="none" xmlns="http://www.w3.org/2000/svg">
<g clip-path="url(#clip0_560_154)">
<path d="M135.59 4.0699H138.88C138.25 4.42078 137.48 5.05236 136.5 5.96464L133.21 9.33306L135.03 11.9296C136.92 14.6664 138.6 16.7015 140 18.1752H135.24C134.68 16.7717 133.84 15.3681 132.93 13.9646L130.76 10.7366L132.65 8.3506C134.33 6.24534 135.31 4.77166 135.59 4.0699ZM130.55 5.68394V16.6313L130.69 17.4734C130.76 17.6138 130.97 17.7541 131.32 17.8243V18.2453H126.7V17.8243L127.33 17.4734C127.4 17.3331 127.47 17.0524 127.47 16.6313V5.68394L127.4 4.84183C127.33 4.70148 127.12 4.56113 126.77 4.49095V4.0699H131.39V4.56113C131.04 4.6313 130.83 4.70148 130.76 4.91201L130.55 5.68394ZM123.69 5.68394V16.6313L123.83 17.4734L124.46 17.8243V18.2453H119.84V17.8243C120.19 17.7541 120.4 17.6138 120.54 17.4734L120.68 16.6313V10.9471H115.29V16.6313L115.43 17.4734C115.5 17.6138 115.71 17.7541 116.06 17.8243V18.2453H111.37V17.8243C111.72 17.7541 112 17.6138 112.07 17.4734L112.21 16.6313V5.68394L112.07 4.91201C112 4.77166 111.72 4.6313 111.37 4.56113V4.0699H116.06V4.56113C115.71 4.6313 115.5 4.70148 115.43 4.91201L115.29 5.68394V10.0348H120.68V5.68394L120.54 4.91201C120.4 4.77166 120.19 4.6313 119.84 4.56113V4.0699H124.46V4.56113C124.11 4.6313 123.9 4.70148 123.83 4.91201L123.69 5.68394ZM140 23.1576H36.7499V21.7541H140V23.1576ZM101.22 4.56113V4.0699H105.28C105.35 4.70148 105.49 5.40323 105.77 6.17516L108.78 14.5962C109.27 16.0699 109.76 17.2629 110.25 18.1752H106.68L105.14 13.1225H100.59L99.6099 16.491L99.3299 18.1752H96.7399L101.29 7.57867C101.71 6.45587 101.99 5.68394 101.99 5.26288C102.06 4.84183 101.78 4.6313 101.22 4.56113ZM102.9 6.45587L100.94 12.1401H104.79L102.9 6.45587ZM95.6899 7.15762H94.9199L94.7099 6.52604C94.4999 5.82429 94.2199 5.40323 93.8699 5.19271L91.9099 4.91201H90.0199C89.5999 4.91201 89.3199 4.98218 89.1799 5.12253C89.0399 5.26288 88.9699 5.47341 88.9699 5.75411V9.12253H89.7399C92.0499 9.12253 93.5899 9.33306 94.4999 9.82429C95.7599 10.4559 96.3899 11.6488 96.3899 13.4734C96.3899 15.2278 95.8999 16.491 94.9199 17.2629C94.0099 17.8945 92.6799 18.1752 90.7899 18.1752H85.1199V17.7541L85.8199 17.4032L85.9599 16.5611V5.68394L85.8199 4.91201C85.7499 4.77166 85.4699 4.6313 85.1199 4.56113V4.0699H95.6199V7.15762H95.6899ZM89.0399 10.0348V16.0699C89.0399 16.5611 89.1099 16.8418 89.3199 16.9822C89.5299 17.1927 89.8099 17.2629 90.2999 17.2629H90.7199C91.6299 17.2629 92.2599 16.9822 92.7499 16.3506C93.0999 15.7892 93.3099 14.8769 93.3099 13.6138C93.3099 12.3506 93.0999 11.5085 92.6799 10.9471C92.2599 10.3155 91.4199 10.0348 90.2999 10.0348H89.0399ZM83.9299 8.14008C83.9299 9.75411 83.4399 10.9471 82.4599 11.6488C81.6199 12.2804 80.2899 12.5611 78.4699 12.5611H77.0699V16.5611L77.2099 17.4032C77.2799 17.5436 77.4899 17.6839 77.9099 17.7541V18.1752H73.2899V17.7541L73.9199 17.4032L74.0599 16.5611V5.68394L73.9199 4.91201C73.8499 4.77166 73.6399 4.6313 73.2899 4.56113V4.0699H79.1699C80.7799 4.0699 81.8999 4.28043 82.6699 4.77166C83.5099 5.40323 83.9299 6.52604 83.9299 8.14008ZM77.2099 5.05236C77.0699 5.12253 76.9999 5.33306 76.9999 5.68394V11.6488H78.3999C79.3099 11.6488 79.8699 11.298 80.2899 10.6664C80.5699 10.105 80.7799 9.19271 80.7799 7.92955C80.7799 5.89446 79.9399 4.91201 78.2599 4.91201H77.9099L77.2099 5.05236ZM71.0499 7.15762H70.2799L70.0699 6.52604C69.8599 5.82429 69.5099 5.40323 69.1599 5.19271L67.3399 4.91201H65.7999L65.2399 5.05236L65.0299 5.61376V9.96464H66.9199C68.1799 9.96464 69.0199 9.82429 69.4399 9.54359V11.298C69.0199 11.0173 68.1799 10.8769 66.9199 10.8769H65.0299V16.1401C65.0299 16.5611 65.1699 16.8418 65.4499 17.0524L67.1999 17.2629H67.6199L69.5799 16.9822C69.9299 16.7717 70.2099 16.2103 70.3499 15.4383L70.4899 14.8769H71.3999V18.1752H61.2499V17.7541C61.5999 17.6839 61.8099 17.5436 61.9499 17.4032L62.0899 16.5611V5.68394L61.9499 4.91201C61.8799 4.77166 61.5999 4.6313 61.2499 4.56113V4.0699H71.1199V7.15762H71.0499ZM58.8699 7.15762H58.0999L57.8899 6.52604C57.6799 5.82429 57.3999 5.40323 56.9799 5.19271L55.1599 4.91201H53.1999C52.7799 4.91201 52.4999 4.98218 52.3599 5.12253C52.2899 5.26288 52.2199 5.47341 52.2199 5.75411V9.12253H52.9899C55.2299 9.12253 56.8399 9.33306 57.7499 9.82429C59.0099 10.4559 59.6399 11.6488 59.6399 13.4734C59.6399 15.2278 59.1499 16.491 58.1699 17.2629C57.3299 17.8945 55.9299 18.1752 54.0399 18.1752H48.3699V17.7541C48.7199 17.6839 48.9999 17.5436 49.0699 17.4032L49.2099 16.5611V5.68394L49.0699 4.91201C48.9999 4.77166 48.7199 4.6313 48.3699 4.56113V4.0699H58.8699V7.15762ZM44.7299 5.19271C44.3099 4.91201 43.6099 4.77166 42.6999 4.77166C41.2999 4.77166 40.2499 5.26288 39.6899 6.31552C39.1999 7.2278 38.9199 8.70148 38.9199 10.7366C38.9199 12.7717 39.1999 14.3155 39.7599 15.298C40.4599 16.491 41.5799 17.1225 43.1899 17.1225C44.3799 17.1225 45.5699 16.8418 46.6899 16.2804L47.1099 17.1927C45.7799 18.0348 44.1699 18.4559 42.3499 18.4559C37.8699 18.4559 35.6299 16.0699 35.6299 11.3681C35.6299 6.38569 37.9399 3.85938 42.5599 3.85938C44.3099 3.85938 45.7099 4.0699 46.6899 4.49095V7.43832H45.7799L45.4999 6.59622C45.3599 5.96464 45.0799 5.47341 44.7299 5.19271ZM52.2899 10.0348V16.0699C52.2899 16.5611 52.3599 16.8418 52.4999 16.9822C52.7099 17.1927 53.0599 17.2629 53.5499 17.2629H53.8999C55.5799 17.2629 56.4899 15.9997 56.4899 13.6138C56.4899 12.3506 56.2799 11.5085 55.8599 10.9471C55.4399 10.3155 54.5999 10.0348 53.4099 10.0348H52.2899Z" fill="#006236"/>
<path d="M23.38 1.82456L24.64 2.94737L8.81996 12.0702L1.18996 7.64912L1.88996 6.24561L8.81996 10.2456L23.38 1.82456ZM20.16 0L21.84 0.842105L8.81996 8.35088L2.79996 4.91228L3.84996 3.64912L8.88996 6.52632L20.16 0ZM25.69 4.14035L26.6 5.40351L8.81996 15.6491L0.209961 10.7368L0.629961 9.12281L8.81996 13.8246L25.69 4.14035Z" fill="url(#paint0_radial_560_154)"/>
<path d="M28.28 8.77142C28.77 10.2451 29.05 11.789 29.05 13.403C29.05 15.017 28.77 16.6311 28.28 18.1047L27.93 19.0872C27.16 20.8416 26.18 22.3855 24.85 23.7188C23.52 25.0521 21.98 26.1047 20.23 26.8065C18.41 27.5784 16.52 27.9995 14.56 27.9995C12.6 27.9995 10.71 27.5784 8.89 26.8065C7.21 26.1047 5.67 25.0521 4.27 23.7188C2.94 22.3855 1.89 20.8416 1.19 19.0872C0.35 17.2626 0 15.3679 0 13.403V12.4205L8.82 17.4732L27.51 6.73633L28.28 8.77142Z" fill="url(#paint1_radial_560_154)"/>
</g>
<defs>
<radialGradient id="paint0_radial_560_154" cx="0" cy="0" r="1" gradientUnits="userSpaceOnUse" gradientTransform="translate(15.4842 13.7353) scale(16.7059 16.7478)">
<stop stop-color="#52A347"/>
<stop offset="0.502" stop-color="#83B03E"/>
<stop offset="0.7059" stop-color="#2EA64C"/>
<stop offset="0.9294" stop-color="#264122"/>
<stop offset="0.9333" stop-color="#264122"/>
</radialGradient>
<radialGradient id="paint1_radial_560_154" cx="0" cy="0" r="1" gradientUnits="userSpaceOnUse" gradientTransform="translate(15.4843 13.7339) scale(16.7061 16.748)">
<stop stop-color="#52A347"/>
<stop offset="0.502" stop-color="#83B03E"/>
<stop offset="0.7059" stop-color="#2B9940"/>
<stop offset="0.9294" stop-color="#264122"/>
<stop offset="0.9333" stop-color="#264122"/>
</radialGradient>
<clipPath id="clip0_560_154">
<rect width="140" height="28" fill="white"/>
</clipPath>
</defs>
</svg>
