<svg width="92" height="20" viewBox="0 0 92 20" fill="none" xmlns="http://www.w3.org/2000/svg">
<path fill-rule="evenodd" clip-rule="evenodd" d="M7.58059 13.9984C9.04324 16.3874 11.7248 17.9964 14.6988 17.9964C19.0868 17.9964 21.5246 14.1934 21.5246 14.1934L21.8171 15.2173C19.7694 17.8501 16.1127 19.459 12.0661 19.459C7.38557 19.459 3.33889 17.2163 1.48619 13.9984C0.803616 12.7795 0.413574 11.4144 0.413574 10.0005C0.413574 4.78369 5.63038 0.541992 12.1148 0.541992C16.6978 0.541992 20.3544 2.4922 22.3047 5.32L14.6013 9.90299L18.9893 3.17477C17.7217 2.39469 16.2103 1.66336 14.6013 1.66336C10.1159 1.66336 6.41046 5.41751 6.41046 9.90299C6.41046 11.3656 6.84926 12.7795 7.58059 13.9984Z" fill="#D24A43"/>
<path fill-rule="evenodd" clip-rule="evenodd" d="M28.0578 13.9989C28.0578 14.1451 28.0091 14.2914 28.0091 14.4377C28.0091 16.1441 29.3742 17.5092 31.0807 17.5092C32.7871 17.5092 34.1522 16.1441 34.1522 14.4377C34.1522 14.2914 34.1522 14.1451 34.1035 13.9501C33.8597 12.4875 32.5921 11.3173 31.0807 11.3173C29.5693 11.3661 28.3016 12.5362 28.0578 13.9989ZM39.5153 13.9989L41.0267 19.1669H35.6637L34.591 15.6565C33.8597 17.7043 31.5195 19.1669 28.6429 19.1669C25.23 19.1669 22.4998 17.0217 22.4998 14.3889C22.4998 14.2426 22.4998 14.1451 22.4998 13.9989C22.7435 11.5124 25.3763 9.56214 28.6429 9.56214C30.4956 9.56214 32.1045 10.196 33.2747 11.1711L31.812 6.29555H25.6688C25.6688 6.29555 26.6927 5.66173 31.2269 4.00405C35.7612 2.34637 37.2238 6.29555 37.2238 6.29555L39.5153 13.9989Z" fill="#D24A43"/>
<path fill-rule="evenodd" clip-rule="evenodd" d="M56.6769 13.9981V19.1662H51.1676V13.9981V7.80623C51.1676 6.97739 50.485 6.29482 49.6562 6.29482C49.0224 6.29482 48.4861 6.68486 48.2423 7.26992V13.9981V19.1662H42.8305V13.9981V6.29482H39.6614C39.6614 6.29482 44.0493 3.61328 45.6095 3.61328C47.0722 3.61328 48.1448 4.73465 48.2423 6.14855C50.3875 4.97843 52.484 3.61328 53.9467 3.61328C55.4581 3.61328 56.6769 4.83216 56.7257 6.29482V13.9981H56.6769Z" fill="#D24A43"/>
<path fill-rule="evenodd" clip-rule="evenodd" d="M65.2094 13.9981L65.9895 16.5333C65.9895 17.6059 66.9158 18.4835 67.9885 18.4835C69.1098 18.4835 70.0362 17.5572 70.0362 16.4358C70.0362 16.3383 70.0362 16.2896 70.0362 16.192L69.4024 13.9493L67.1109 6.09972C67.0134 5.07587 66.1358 4.29578 65.1119 4.29578C64.0881 4.29578 63.0642 5.27088 62.9667 6.24599L65.2094 13.9981ZM73.9854 13.9981C72.9615 17.1671 69.9387 19.4586 66.4283 19.4586C62.9179 19.4586 59.8951 17.1671 58.8712 13.9981C58.6275 13.218 58.4812 12.3891 58.4812 11.5115C58.4812 7.12358 62.0403 3.56445 66.4283 3.56445C70.8163 3.56445 74.3754 7.12358 74.3754 11.5115C74.3754 12.3891 74.2779 13.218 73.9854 13.9981Z" fill="#D24A43"/>
<path fill-rule="evenodd" clip-rule="evenodd" d="M83.151 13.9981V19.1662H77.7391V13.9981V6.29482H74.7163C74.7163 6.29482 79.0068 3.61328 80.5182 3.61328C81.9808 3.61328 83.0534 4.73465 83.151 6.14855C85.2962 4.97843 87.3927 3.61328 88.8553 3.61328C90.3667 3.61328 91.5856 4.83216 91.6344 6.29482V13.9494V19.1174H86.125V13.9494V7.80623C86.125 6.97739 85.4425 6.29482 84.6136 6.29482C83.9798 6.29482 83.4435 6.68486 83.1997 7.26992V13.9981H83.151Z" fill="#D24A43"/>
</svg>
