<svg width="88" height="38" viewBox="0 0 88 38" fill="none" xmlns="http://www.w3.org/2000/svg">
<path fill-rule="evenodd" clip-rule="evenodd" d="M48.0714 0.599609H49.8109C51.537 0.71264 53.3093 0.968187 54.8481 1.82083C55.9076 2.39704 56.8114 3.34305 57.1508 4.5311C57.5984 6.03981 57.2359 7.66401 56.4866 9.00932C54.9491 11.8449 52.7157 14.1977 50.7232 16.6991C50.1685 17.4178 49.5494 18.1095 49.1832 18.9511C49.0555 19.2435 48.9655 19.6501 49.2367 19.891C49.581 20.1649 50.0505 20.1367 50.4641 20.1305C54.7471 19.843 58.9377 18.7459 62.9604 17.2741C64.9286 16.5725 66.8432 15.7322 68.781 14.9545C68.1484 15.4299 67.4429 15.8022 66.7654 16.1978C64.069 17.6955 61.2925 19.0412 58.4487 20.2288C55.5998 21.3898 52.6853 22.4931 49.626 22.9194C48.4716 23.0251 47.2004 23.1308 46.1555 22.5226C45.3186 22.0312 45.0741 20.9254 45.304 20.0273C45.6361 18.714 46.4803 17.6181 47.299 16.5738C49.4229 14.0048 51.7572 11.6041 53.6463 8.84346C54.1791 8.06576 54.6754 7.22909 54.853 6.28676C54.9527 5.72898 54.9211 5.12328 54.6231 4.62939C54.2022 3.93032 53.4541 3.52366 52.7267 3.22757C51.346 2.67101 49.8863 2.35772 48.485 1.86383C47.9753 2.15501 47.4681 2.44987 46.9608 2.7435C47.2868 3.04082 47.6092 3.34428 47.9339 3.64406C45.7952 3.99091 43.6763 4.45353 41.5867 5.02991C38.8376 5.80638 36.142 6.75977 33.4439 7.70087C33.6872 8.35079 33.9585 8.99089 34.1823 9.64942C33.4074 10.3571 32.6812 11.1139 31.9477 11.8609C31.5813 11.7237 31.2241 11.5624 30.8785 11.378C30.8724 12.5993 30.8992 13.8205 30.8627 15.0405C29.7168 15.5319 28.6172 16.1831 27.7122 17.0554C27.2767 17.5013 26.8704 18.026 26.739 18.6525C26.5493 19.5568 27.1477 20.5188 28.0041 20.8063C28.5688 21.0889 29.1705 21.2887 29.791 21.3997C31.55 21.708 33.3478 21.5631 35.1092 21.353C37.2277 21.0671 39.3262 20.6461 41.392 20.0924C39.8826 20.9096 38.3147 21.6115 36.7015 22.1921C34.2806 23.0391 31.7441 23.5012 29.1828 23.562C27.4798 23.5092 25.6686 23.2057 24.3171 22.0778C23.2941 21.2375 22.8112 19.8578 22.9304 18.5493C23.052 16.8084 23.8926 15.226 24.8536 13.8119C27.6039 9.53639 31.6254 6.17864 36.1566 3.97332C39.8946 2.17835 43.9198 0.867442 48.0702 0.599609H48.0714ZM65.1208 20.7227C64.8939 20.8183 64.6975 20.9751 64.5531 21.176C64.4087 21.3769 64.3218 21.6141 64.3021 21.8616C64.2279 22.5742 64.8118 23.2929 65.5319 23.3052C66.3165 23.4084 67.0561 22.6541 66.9491 21.8628C66.9199 20.9856 65.909 20.3689 65.1244 20.7276L65.1208 20.7227ZM65.3288 20.9107C64.5466 21.1171 64.2608 22.2302 64.886 22.7683C65.437 23.3519 66.5063 23.0263 66.6814 22.2499C66.9247 21.4722 66.0988 20.6441 65.3288 20.9107ZM65.032 21.2092C65.032 21.724 65.0259 22.2388 65.032 22.7536C65.3969 22.7253 65.1828 22.2793 65.2424 22.0447C65.8312 21.912 65.8117 22.7818 66.3457 22.7364C66.2107 22.5042 66.0659 22.2781 65.9187 22.0545C66.201 21.9243 66.3287 21.5397 66.0878 21.3075C65.7667 21.1318 65.3762 21.2338 65.0271 21.2092H65.032ZM65.2436 21.4156C65.2436 21.5274 65.2436 21.751 65.2436 21.8616C65.4784 21.8198 65.8008 21.9427 65.9735 21.7216C66.0696 21.2756 65.4967 21.4758 65.2436 21.4156ZM58.7686 27.663C59.6019 27.1347 60.6297 26.9787 61.598 27.0831C62.3352 27.1667 63.0893 27.4333 63.6063 27.9923C63.9713 28.3953 64.1598 28.9199 64.324 29.4297C64.0056 29.5409 63.6806 29.6316 63.3509 29.7013C63.1562 29.2749 63.0249 28.781 62.632 28.4862C61.8109 27.8596 60.637 27.8547 59.7211 28.2638C58.7479 28.7036 58.2942 29.818 58.2273 30.8352C58.1604 31.8525 58.3599 33.0037 59.1664 33.6979C60.3658 34.6685 62.2074 34.5001 63.346 33.5197C63.3776 33.0283 63.346 32.5368 63.357 32.0516H61.0458C61.0458 31.7333 61.0458 31.4164 61.0458 31.0982C62.1705 31.0982 63.2953 31.0982 64.4201 31.0982C64.4201 32.0946 64.4201 33.0897 64.4201 34.0861C63.5224 34.7889 62.4361 35.3024 61.2817 35.3147C59.9996 35.3688 58.6251 34.881 57.8539 33.8011C57.1374 32.7776 56.9841 31.4446 57.197 30.2382C57.3928 29.2356 57.8867 28.2269 58.7686 27.6716V27.663ZM4.88114 27.1372C5.87496 27.1372 6.86756 27.1372 7.86138 27.1372C9.15443 29.8241 10.4888 32.4926 11.7795 35.1808C10.7784 35.1808 9.77724 35.1906 8.77612 35.1746C8.58636 34.6893 8.39052 34.2065 8.17643 33.7323C6.81769 33.747 5.45894 33.7323 4.1002 33.7323C3.88611 34.2065 3.67202 34.6807 3.47618 35.1623C2.58454 35.1894 1.6929 35.1734 0.800049 35.1722C0.97643 34.6562 1.26837 34.1954 1.50192 33.7077C2.62955 31.5159 3.74744 29.3179 4.87993 27.1286L4.88114 27.1372ZM4.90669 31.9582C5.75818 31.9582 6.60968 31.9582 7.46117 31.9582C7.05854 31.0195 6.6413 30.0883 6.24475 29.1484C5.7375 30.0514 5.36406 31.0245 4.90669 31.9557V31.9582ZM12.1176 27.1372H14.7013V35.1832C13.8401 35.1832 12.9789 35.1832 12.1176 35.1832C12.1176 32.5008 12.1176 29.8188 12.1176 27.1372ZM16.2218 27.1372C17.0843 27.1372 17.9455 27.1372 18.808 27.1372C18.808 27.6987 18.808 28.2614 18.808 28.824C17.9492 28.8302 17.0904 28.824 16.2316 28.8326C16.2145 28.2675 16.2231 27.7011 16.2218 27.136V27.1372ZM20.2044 27.1372C21.0681 27.1372 21.9317 27.1298 22.7942 27.1372C22.782 28.1987 22.7942 29.2614 22.7844 30.3242C23.175 29.9409 23.6549 29.6632 24.1799 29.5167C24.7048 29.3703 25.2578 29.3598 25.7878 29.4863C26.8363 29.6914 27.6708 30.608 27.8642 31.6584C28.0199 32.5516 27.9688 33.5627 27.3849 34.2999C26.2841 35.6685 23.9668 35.6366 22.8063 34.3552C22.7844 34.6291 22.7565 34.9019 22.7236 35.1759C21.86 35.182 20.9963 35.1759 20.1326 35.1759C20.2397 34.5456 20.202 33.9055 20.2056 33.2691C20.2056 31.2214 20.2056 29.1738 20.2056 27.1261L20.2044 27.1372ZM23.625 30.8807C23.164 31.0134 22.8732 31.4729 22.8161 31.9348C22.7467 32.4754 22.7577 33.086 23.108 33.532C23.5946 34.134 24.6516 34.08 25.0543 33.4177C25.4095 32.8465 25.4058 32.0786 25.1346 31.4741C24.8791 30.9126 24.1845 30.6841 23.6225 30.8795L23.625 30.8807ZM37.3876 32.9079C37.3876 30.9827 37.3791 29.0575 37.3876 27.1335C38.2476 27.1433 39.1076 27.1335 39.9676 27.1396C39.9676 28.1962 39.9676 29.2528 39.9676 30.3094C41.1098 29.1717 43.1911 29.0636 44.3248 30.2652C45.0425 31.0318 45.2225 32.167 45.0547 33.1782C44.9745 33.621 44.7801 34.0346 44.4912 34.3774C44.2022 34.7201 43.8289 34.9799 43.4089 35.1304C42.2399 35.5334 40.7923 35.3159 39.9664 34.3281C39.9589 34.6161 39.9337 34.9033 39.891 35.1881C39.0273 35.1881 38.1649 35.1881 37.3012 35.1881C37.4326 34.4362 37.3778 33.6721 37.3876 32.914V32.9079ZM40.7765 30.8918C40.5811 30.9622 40.4076 31.0834 40.2735 31.2433C40.1393 31.4032 40.0494 31.5959 40.0126 31.8022C39.8812 32.3698 39.9141 33.0234 40.2559 33.5111C40.7303 34.1254 41.7971 34.091 42.2204 33.4313C42.5853 32.8477 42.5853 32.0577 42.2873 31.4459C42.0258 30.8918 41.3215 30.6878 40.7729 30.8918H40.7765ZM67.5512 29.3093C68.0305 29.1459 68.5243 29.3364 68.9537 29.5551C68.8321 29.8696 68.7214 30.1841 68.6046 30.4974C68.326 30.3942 68.0378 30.2517 67.7349 30.3106C66.8469 30.4777 66.8007 31.5724 66.7934 32.3022C66.7934 33.2617 66.7934 34.2212 66.7934 35.1808C66.4588 35.1881 66.1255 35.1906 65.7934 35.1931C65.7776 33.2568 65.7934 31.3193 65.7862 29.3831H66.6997C66.6997 29.6521 66.6997 29.9224 66.6924 30.1927C66.915 29.8499 67.1327 29.4469 67.5439 29.3143L67.5512 29.3093ZM71.3306 29.3167C72.2539 29.1177 73.3097 29.3413 73.9581 30.0698C74.6283 30.7947 74.7427 31.8587 74.6405 32.8035C74.593 33.4558 74.3644 34.1168 73.89 34.5763C72.991 35.4216 71.5289 35.5469 70.484 34.9105C69.7955 34.4928 69.4135 33.7065 69.3235 32.9202C69.2335 32.1339 69.2736 31.2628 69.6568 30.5404C69.8302 30.2247 70.0699 29.9512 70.3591 29.739C70.6482 29.5267 70.9798 29.3809 71.3306 29.3118V29.3167ZM71.5556 30.1472C70.8331 30.3389 70.3952 31.0687 70.3392 31.7874C70.265 32.5823 70.3125 33.5283 70.9474 34.0922C71.5958 34.7065 72.7526 34.5616 73.2392 33.8097C73.7051 33.0725 73.7111 32.1216 73.5019 31.3021C73.2927 30.4826 72.3755 29.8806 71.5459 30.1472H71.5556ZM84.0544 29.3622C84.8523 29.1054 85.8048 29.2835 86.3984 29.9003C86.9118 30.4102 87.1283 31.1436 87.2 31.8488V32.7211C87.1359 33.2224 86.9773 33.7065 86.7329 34.1475C86.4752 34.5803 86.0878 34.919 85.6268 35.1147C85.1658 35.3104 84.6552 35.3529 84.1687 35.2361C83.7928 35.1402 83.4948 34.8785 83.2065 34.6316C83.226 35.5506 83.2065 36.4745 83.2163 37.3873L82.2176 37.3959C82.2078 34.7225 82.2176 32.0479 82.2176 29.3745C82.5217 29.3745 82.8258 29.3745 83.1323 29.3745C83.1323 29.603 83.1238 29.8315 83.1202 30.0625C83.4012 29.7909 83.6736 29.4764 84.058 29.356L84.0544 29.3622ZM84.2101 30.1423C83.653 30.388 83.2953 30.963 83.1932 31.5552C83.0715 32.2297 83.0849 32.9595 83.3574 33.5959C83.6116 34.2102 84.3098 34.6193 84.9594 34.4375C85.6382 34.2556 86.0627 33.5713 86.1332 32.8944C86.1989 32.2481 86.2135 31.5626 85.9532 30.9556C85.6807 30.2984 84.8961 29.8315 84.2101 30.1423ZM75.9177 29.3781H76.9201C76.9201 30.5985 76.9201 31.8185 76.9201 33.0381C76.9274 33.4128 76.948 33.8441 77.2436 34.1156C77.7168 34.5751 78.5172 34.4842 79.0135 34.107C79.4648 33.7888 79.5463 33.1868 79.5658 32.6732C79.5658 31.5749 79.5658 30.4765 79.5658 29.3781H80.5657C80.573 31.3144 80.5657 33.2494 80.5657 35.1857H79.6534C79.6534 34.9265 79.6534 34.666 79.6534 34.4068C78.9746 35.3896 77.5173 35.5997 76.5637 34.9203C76.0868 34.5837 75.9104 33.9669 75.9092 33.4042C75.9092 32.0638 75.9092 30.7234 75.9092 29.3818L75.9177 29.3781ZM29.6232 30.1669C30.2314 29.6239 31.0829 29.5256 31.8626 29.458C32.8528 29.415 33.8879 29.3953 34.8197 29.7836C35.3939 30.017 35.8707 30.5342 35.951 31.1694C36.0811 32.5024 35.8719 33.8564 36.0726 35.1845C35.2747 35.1845 34.4763 35.1845 33.6775 35.1845C33.6264 34.9265 33.5814 34.6697 33.5558 34.4092C33.0608 35.0309 32.2543 35.2766 31.4879 35.3024C30.7216 35.3282 29.9066 35.2754 29.2765 34.7962C28.6464 34.3171 28.6038 33.3711 29.0247 32.758C29.2911 32.3538 29.7545 32.1437 30.1949 32C31.2811 31.6695 32.427 31.6781 33.5498 31.6142C33.5267 31.2935 33.4464 30.904 33.1009 30.7886C32.5474 30.5711 31.6838 30.6202 31.5001 31.3107C30.711 31.3107 29.9212 31.3107 29.1305 31.3107C29.1621 30.8868 29.2923 30.4507 29.6256 30.1657L29.6232 30.1669ZM31.8565 32.9239C31.5706 32.9988 31.3225 33.2924 31.4137 33.602C31.4746 33.9166 31.8237 34.0198 32.0974 34.048C32.5207 34.0652 33.0231 33.9927 33.287 33.6168C33.4756 33.3711 33.4865 33.0479 33.5133 32.7568C32.9598 32.7838 32.3905 32.7568 31.8565 32.9288V32.9239ZM47.052 29.9703C48.0106 29.4248 49.1565 29.4371 50.2245 29.4469C51.0906 29.4961 52.0637 29.614 52.6999 30.275C53.3081 30.9176 53.1451 31.8722 53.1707 32.6769C53.2047 33.5123 53.0891 34.3613 53.2497 35.1869C52.4457 35.1869 51.6416 35.198 50.8388 35.1783C50.7938 34.9326 50.7548 34.6783 50.7244 34.4264C50.1247 35.1402 49.154 35.3417 48.2685 35.3122C47.5812 35.2877 46.8088 35.1894 46.3076 34.6672C45.9147 34.2851 45.8575 33.6733 45.9962 33.1647C46.1349 32.656 46.5752 32.3046 47.046 32.1204C48.2222 31.6523 49.5068 31.7149 50.7439 31.5994C50.6685 31.2935 50.6076 30.8991 50.2646 30.7861C49.7099 30.5834 48.8536 30.6313 48.6687 31.3181C47.8816 31.3181 47.0946 31.3181 46.3088 31.3181C46.3173 30.7787 46.5703 30.2345 47.052 29.9666V29.9703ZM48.9266 32.9681C48.5555 33.0909 48.4278 33.6561 48.7696 33.8871C49.1856 34.1549 49.7562 34.0873 50.1819 33.8736C50.6077 33.6598 50.6685 33.1708 50.6928 32.7543C50.1028 32.7912 49.4861 32.7482 48.9266 32.9681ZM16.2218 29.5649C17.0855 29.5649 17.9492 29.5489 18.8128 29.5772C18.7909 31.4483 18.8262 33.3207 18.7946 35.1918C17.9431 35.1759 17.0806 35.1918 16.2231 35.1832C16.2231 33.3109 16.2231 31.4381 16.2231 29.5649H16.2218Z" fill="#FF7300"/>
<path fill-rule="evenodd" clip-rule="evenodd" d="M46.9634 2.74295C47.4706 2.44932 47.9779 2.15446 48.4875 1.86328C49.8889 2.35472 51.3486 2.67047 52.7292 3.22702C53.459 3.52679 54.2047 3.92977 54.6256 4.62884C54.9236 5.12028 54.9552 5.72843 54.8555 6.28621C54.8575 5.8112 54.6992 5.34967 54.4066 4.97776C53.8909 4.35609 53.1452 4.00103 52.4251 3.68282C51.1953 3.18402 49.9144 2.83387 48.6432 2.46406C48.4 2.60986 48.1591 2.75688 47.9207 2.90513C48.4072 3.30442 48.8938 3.71723 49.3804 4.11529C44.2714 4.92125 39.2841 6.34273 34.4184 8.09347C34.6349 8.64715 34.8486 9.20289 35.0595 9.76067C34.2846 10.5273 33.5012 11.2841 32.7483 12.0667C35.7042 12.9513 39.0031 12.3125 41.487 10.4905C41.2328 10.2128 40.9542 9.9597 40.6854 9.69678C41.2231 9.75821 41.7644 9.96093 42.1244 10.386C42.5587 10.8295 42.6791 11.4746 42.6706 12.0778L42.0624 12.0913C42.048 11.7397 41.9916 11.3911 41.8945 11.0531C41.0294 11.6787 40.0894 12.191 39.0968 12.5778C36.6746 13.4978 34.0103 13.5339 31.5647 12.6798C31.5647 13.6246 31.5586 14.5706 31.5647 15.5154C30.3611 15.979 29.2532 16.6643 28.2974 17.5364C27.8108 18.0131 27.3327 18.5795 27.2208 19.2786C27.1284 19.9027 27.5152 20.4801 28.0176 20.8057C27.1661 20.5182 26.5579 19.5562 26.7525 18.652C26.8815 18.0254 27.2877 17.5008 27.7257 17.0548C28.6307 16.1825 29.7303 15.5338 30.8762 15.0399C30.9127 13.8199 30.8859 12.5987 30.892 11.3775C31.2376 11.5618 31.5948 11.7231 31.9612 11.8603C32.6911 11.1097 33.4209 10.3528 34.1958 9.64887C33.972 8.99034 33.7019 8.35024 33.4574 7.70032C36.1555 6.75922 38.851 5.80583 41.6002 5.02936C43.6907 4.45414 45.8103 3.99275 47.9499 3.6472C47.6117 3.34373 47.2845 3.04027 46.9634 2.74295Z" fill="#010001"/>
</svg>
