<svg width="16" height="16" viewBox="0 0 16 16" fill="none" xmlns="http://www.w3.org/2000/svg">
<path d="M11.5 12.1667H9.83333L8 9L6.16667 12.1667H4.5L7.16667 8L4.5 3.83333H6.16667L8 7L9.83333 3.83333H11.5L8.83333 8L11.5 12.1667ZM13.8333 0.5H2.16667C1.24167 0.5 0.5 1.24167 0.5 2.16667V13.8333C0.5 14.2754 0.675595 14.6993 0.988155 15.0118C1.30072 15.3244 1.72464 15.5 2.16667 15.5H13.8333C14.2754 15.5 14.6993 15.3244 15.0118 15.0118C15.3244 14.6993 15.5 14.2754 15.5 13.8333V2.16667C15.5 1.24167 14.75 0.5 13.8333 0.5Z" fill="#1F7244"/>
</svg>
