<svg width="16" height="16" viewBox="0 0 16 16" fill="none" xmlns="http://www.w3.org/2000/svg">
<path d="M13.8333 0.5C14.2754 0.5 14.6993 0.675595 15.0118 0.988155C15.3244 1.30072 15.5 1.72464 15.5 2.16667V13.8333C15.5 14.2754 15.3244 14.6993 15.0118 15.0118C14.6993 15.3244 14.2754 15.5 13.8333 15.5H2.16667C1.24167 15.5 0.5 14.75 0.5 13.8333V2.16667C0.5 1.24167 1.24167 0.5 2.16667 0.5H13.8333ZM6.825 6.4C6.80833 6.44167 6.58333 7.86667 5.08333 10.3083C5.08333 10.3083 2.16667 11.8167 2.85833 12.95C3.41667 13.8333 4.79167 12.9167 5.96667 10.725C5.96667 10.725 7.48333 10.1917 9.49167 10.0417C9.49167 10.0417 12.7083 11.4917 13.1417 9.95C13.575 8.41667 10.6 8.75 10.0833 8.90833C10.0833 8.90833 8.38333 7.79167 8 6.24167C8 6.24167 8.94167 2.95833 7.48333 3C6.025 3.04167 6.575 5.6 6.825 6.4ZM7.5 7.275C7.525 7.275 7.89167 8.275 9.075 9.31667C9.075 9.31667 7.13333 9.7 6.25 10.0833C6.25 10.0833 7.08333 8.625 7.5 7.275ZM10.7667 9.53333C11.25 9.40833 12.7 9.66667 12.65 9.93333C12.5833 10.2083 10.7667 9.53333 10.7667 9.53333ZM4.88333 11.0833C4.44167 12.0917 3.69167 12.7333 3.5 12.725C3.30833 12.7167 4.08333 11.3917 4.88333 11.0833ZM7.5 5.3C7.49167 5.25833 7.19167 3.475 7.5 3.50833C7.95 3.55833 7.5 5.25833 7.5 5.3Z" fill="#B90605"/>
</svg>
