<svg width="16" height="16" viewBox="0 0 16 16" fill="none" xmlns="http://www.w3.org/2000/svg">
<path d="M10.9167 12.1667H9.66667L8 5.91667L6.33333 12.1667H5.08333L3.08333 3.83333H4.5L5.78333 10.0833L7.41667 3.83333H8.58333L10.225 10.0833L11.5 3.83333H12.9167L10.9167 12.1667ZM13.8333 0.5H2.16667C1.24167 0.5 0.5 1.24167 0.5 2.16667V13.8333C0.5 14.2754 0.675595 14.6993 0.988155 15.0118C1.30072 15.3244 1.72464 15.5 2.16667 15.5H13.8333C14.2754 15.5 14.6993 15.3244 15.0118 15.0118C15.3244 14.6993 15.5 14.2754 15.5 13.8333V2.16667C15.5 1.24167 14.75 0.5 13.8333 0.5Z" fill="#185ABC"/>
</svg>
