<svg width="16" height="16" viewBox="0 0 16 16" fill="none" xmlns="http://www.w3.org/2000/svg">
<path d="M13.8333 0.5H2.16667C1.24167 0.5 0.5 1.24167 0.5 2.16667V13.8333C0.5 14.75 1.25 15.5 2.16667 15.5H13.8333C14.75 15.5 15.5 14.75 15.5 13.8333V2.16667C15.5 1.24167 14.75 0.5 13.8333 0.5ZM5.5 13H3V11.3333H5.5V13ZM5.5 10.5H3V8.83333H5.5V10.5ZM5.5 8H3V6.33333H5.5V8ZM8.83333 13H6.33333V11.3333H8.83333V13ZM8.83333 10.5H6.33333V8.83333H8.83333V10.5ZM8.83333 8H6.33333V6.33333H8.83333V8Z" fill="#9B51E0"/>
</svg>
